# Blender v2.79 (sub 0) OBJ File: ''
# www.blender.org
mtllib grass.mtl
o Plane_Plane.000
v 2.045010 -0.146643 -30.451572
v 9.344506 -0.266401 -39.108677
v 2.206377 -0.188277 -39.186123
v -15.997539 -0.188642 -30.723063
v 0.189331 -0.139602 -39.244438
v -15.943152 -0.131965 -39.436291
v -15.895114 -0.146397 -41.404030
v 0.460277 -0.135066 -56.892212
v -15.668719 -0.120095 -57.090080
v 2.179277 -0.134277 -41.132389
v 9.657592 -0.136844 -56.687565
v 2.436683 -0.117234 -56.854939
v -16.168680 -0.138536 -23.465363
v 0.061416 -0.139775 -28.090366
v -16.276114 -0.133019 -28.344078
v 9.226399 -0.157079 -27.938225
v 1.963920 -0.132977 -23.268841
v 9.129246 -0.122272 -23.071026
v 9.296785 -0.230340 -30.344646
v 0.068948 -0.158632 -30.475325
v 0.246551 -0.131169 -41.047733
v 9.482100 -0.121455 -40.991356
v 0.007628 -0.117989 -23.268299
v 2.066949 -0.138079 -28.074299
v 22.767454 -0.175307 -49.160255
v 15.477835 -0.295066 -40.494831
v 22.616049 -0.216942 -40.425526
v 40.810299 -0.217306 -48.909344
v 24.633160 -0.168267 -40.369514
v 40.765854 -0.160630 -40.196060
v 40.720055 -0.175062 -38.228264
v 24.382341 -0.163734 -22.721437
v 40.511551 -0.148763 -22.541965
v 22.645369 -0.162942 -38.479294
v 15.184798 -0.165512 -22.915598
v 22.405895 -0.145902 -22.756460
v 40.973167 -0.167198 -56.167233
v 24.748354 -0.168438 -51.523724
v 41.086163 -0.161682 -51.288643
v 15.583202 -0.185742 -51.665413
v 22.840351 -0.161639 -56.343075
v 15.674805 -0.150934 -56.532715
v 15.515560 -0.259004 -49.258911
v 24.743542 -0.187296 -49.138756
v 24.577997 -0.159834 -38.566154
v 15.342389 -0.150120 -38.612000
v 24.796642 -0.146651 -56.345848
v 22.742804 -0.166742 -51.537498
v 1.380134 -0.146643 7.772930
v 8.679630 -0.266401 -0.884174
v 1.541501 -0.188277 -0.961620
v -16.662415 -0.188642 7.501442
v -0.475545 -0.139602 -1.019936
v -16.608028 -0.131965 -1.211788
v -16.559990 -0.146397 -3.179527
v -0.204599 -0.135066 -18.667711
v -16.333595 -0.120095 -18.865580
v 1.514401 -0.134277 -2.907887
v 8.992716 -0.136844 -18.463062
v 1.771807 -0.117234 -18.630436
v -16.833557 -0.138536 14.759140
v -0.603460 -0.139775 10.134136
v -16.940990 -0.133019 9.880424
v 8.561523 -0.157079 10.286278
v 1.299044 -0.132977 14.955662
v 8.464370 -0.122272 15.153477
v 8.631909 -0.230340 7.879856
v -0.595928 -0.158632 7.749176
v -0.418325 -0.131169 -2.823231
v 8.817224 -0.121455 -2.766853
v -0.657248 -0.117989 14.956203
v 1.402073 -0.138079 10.150204
v 22.259604 -0.146643 -10.967625
v 14.969984 -0.266401 -2.302200
v 22.108198 -0.188277 -2.232895
v 40.302448 -0.188642 -10.716713
v 24.125309 -0.139602 -2.176884
v 40.257999 -0.131965 -2.003429
v 40.212204 -0.146397 -0.035633
v 23.874491 -0.135066 15.471191
v 40.003700 -0.120095 15.650665
v 22.137518 -0.134277 -0.286663
v 14.676948 -0.136844 15.277031
v 21.898045 -0.117234 15.436172
v 40.465313 -0.138536 -17.974602
v 24.240503 -0.139775 -13.331093
v 40.578312 -0.133019 -13.096012
v 15.075352 -0.157079 -13.472782
v 22.332500 -0.132977 -18.150444
v 15.166954 -0.122272 -18.340088
v 15.007710 -0.230340 -11.066280
v 24.235691 -0.158632 -10.946125
v 24.070147 -0.131169 -0.373524
v 14.834538 -0.121455 -0.419369
v 24.288792 -0.117989 -18.153217
v 22.234953 -0.138079 -13.344872
vt 0.000000 0.000000
vt 1.000000 1.000000
vt 0.000000 1.000000
vt 0.771765 0.002029
vt 0.497209 0.502045
vt 0.498140 0.000000
vt 0.497209 0.000000
vt 0.000000 0.498869
vt 0.006827 0.001406
vt 1.000000 0.489208
vt 0.772749 0.005336
vt 1.000000 0.000000
vt 0.924074 0.496587
vt 0.772727 1.000000
vt 0.772618 0.491548
vt 0.000000 0.000000
vt 1.000000 1.000000
vt 0.000000 1.000000
vt 1.000000 0.000000
vt 0.772618 0.502045
vt 0.497209 0.501833
vt 0.772618 0.491548
vt 0.922536 1.000000
vt 1.000000 0.000000
vt 0.000000 0.000000
vt 1.000000 1.000000
vt 0.000000 1.000000
vt 0.771765 0.002029
vt 0.497209 0.502045
vt 0.498140 0.000000
vt 0.497209 0.000000
vt 0.000000 0.498869
vt 0.006827 0.001406
vt 1.000000 0.489208
vt 0.772749 0.005336
vt 1.000000 0.000000
vt 0.924074 0.496587
vt 0.772727 1.000000
vt 0.772618 0.491548
vt 0.000000 0.000000
vt 1.000000 1.000000
vt 0.000000 1.000000
vt 1.000000 0.000000
vt 0.772618 0.502045
vt 0.497209 0.501833
vt 0.772618 0.491548
vt 0.922536 1.000000
vt 1.000000 0.000000
vt 0.000000 0.000000
vt 1.000000 1.000000
vt 0.000000 1.000000
vt 0.771765 0.002029
vt 0.497209 0.502045
vt 0.498140 0.000000
vt 0.497209 0.000000
vt 0.000000 0.498869
vt 0.006827 0.001406
vt 1.000000 0.489208
vt 0.772749 0.005336
vt 1.000000 0.000000
vt 0.924074 0.496587
vt 0.772727 1.000000
vt 0.772618 0.491548
vt 0.000000 0.000000
vt 1.000000 1.000000
vt 0.000000 1.000000
vt 1.000000 0.000000
vt 0.772618 0.502045
vt 0.497209 0.501833
vt 0.772618 0.491548
vt 0.922536 1.000000
vt 1.000000 0.000000
vt 0.000000 0.000000
vt 1.000000 1.000000
vt 0.000000 1.000000
vt 0.771765 0.002029
vt 0.497209 0.502045
vt 0.498140 0.000000
vt 0.497209 0.000000
vt 0.000000 0.498869
vt 0.006827 0.001406
vt 1.000000 0.489208
vt 0.772749 0.005336
vt 1.000000 0.000000
vt 0.924074 0.496587
vt 0.772727 1.000000
vt 0.772618 0.491548
vt 0.000000 0.000000
vt 1.000000 1.000000
vt 0.000000 1.000000
vt 1.000000 0.000000
vt 0.772618 0.502045
vt 0.497209 0.501833
vt 0.772618 0.491548
vt 0.922536 1.000000
vt 1.000000 0.000000
vn 0.0113 0.9999 -0.0043
vn 0.0110 0.9999 -0.0046
vn -0.0015 1.0000 0.0028
vn 0.0001 1.0000 0.0058
vn 0.0004 1.0000 0.0065
vn -0.0000 1.0000 0.0007
vn 0.0009 1.0000 0.0017
vn 0.0019 1.0000 0.0007
vn -0.0009 1.0000 -0.0007
vn 0.0027 1.0000 0.0011
vn -0.0008 1.0000 -0.0032
vn 0.0000 1.0000 -0.0002
vn 0.0004 1.0000 0.0011
vn 0.0023 1.0000 -0.0017
vn -0.0008 1.0000 -0.0066
vn -0.0013 1.0000 -0.0072
vn 0.0116 0.9999 -0.0041
vn -0.0019 1.0000 0.0021
vn -0.0009 1.0000 -0.0003
vn -0.0017 1.0000 -0.0010
vn -0.0012 1.0000 -0.0045
vn 0.0027 1.0000 -0.0010
vn -0.0113 0.9999 0.0043
vn -0.0113 0.9999 0.0044
vn -0.0110 0.9999 0.0046
vn 0.0015 1.0000 -0.0028
vn -0.0001 1.0000 -0.0058
vn -0.0004 1.0000 -0.0065
vn 0.0000 1.0000 -0.0007
vn -0.0009 1.0000 -0.0017
vn -0.0019 1.0000 -0.0007
vn 0.0009 1.0000 0.0007
vn -0.0027 1.0000 -0.0011
vn 0.0008 1.0000 0.0032
vn 0.0000 1.0000 0.0002
vn -0.0004 1.0000 -0.0011
vn -0.0023 1.0000 0.0017
vn 0.0008 1.0000 0.0066
vn 0.0013 1.0000 0.0072
vn -0.0116 0.9999 0.0041
vn 0.0019 1.0000 -0.0021
vn 0.0009 1.0000 0.0003
vn 0.0017 1.0000 0.0010
vn 0.0012 1.0000 0.0045
vn -0.0027 1.0000 0.0010
usemtl Material.013
s 1
f 1/1/1 2/2/1 3/3/2
f 4/4/3 5/5/4 6/6/5
f 7/7/6 8/8/6 9/9/7
f 10/10/8 11/11/9 12/12/10
f 13/13/11 14/14/12 15/15/13
f 16/16/14 17/17/15 18/18/16
f 1/1/1 19/19/17 2/2/1
f 4/4/3 20/20/18 5/5/4
f 7/7/6 21/21/19 8/8/6
f 10/10/8 22/22/20 11/11/9
f 13/13/11 23/23/21 14/14/12
f 16/16/14 24/24/22 17/17/15
f 25/25/23 26/26/24 27/27/25
f 28/28/26 29/29/27 30/30/28
f 31/31/29 32/32/29 33/33/30
f 34/34/31 35/35/32 36/36/33
f 37/37/34 38/38/35 39/39/36
f 40/40/37 41/41/38 42/42/39
f 25/25/23 43/43/40 26/26/24
f 28/28/26 44/44/41 29/29/27
f 31/31/29 45/45/42 32/32/29
f 34/34/31 46/46/43 35/35/32
f 37/37/34 47/47/44 38/38/35
f 40/40/37 48/48/45 41/41/38
f 49/49/1 50/50/1 51/51/2
f 52/52/3 53/53/4 54/54/5
f 55/55/6 56/56/6 57/57/7
f 58/58/8 59/59/9 60/60/10
f 61/61/11 62/62/12 63/63/13
f 64/64/14 65/65/15 66/66/16
f 49/49/1 67/67/17 50/50/1
f 52/52/3 68/68/18 53/53/4
f 55/55/6 69/69/19 56/56/6
f 58/58/8 70/70/20 59/59/9
f 61/61/11 71/71/21 62/62/12
f 64/64/14 72/72/22 65/65/15
f 73/73/23 74/74/24 75/75/25
f 76/76/26 77/77/27 78/78/28
f 79/79/29 80/80/29 81/81/30
f 82/82/31 83/83/32 84/84/33
f 85/85/34 86/86/35 87/87/36
f 88/88/37 89/89/38 90/90/39
f 73/73/23 91/91/40 74/74/24
f 76/76/26 92/92/41 77/77/27
f 79/79/29 93/93/42 80/80/29
f 82/82/31 94/94/43 83/83/32
f 85/85/34 95/95/44 86/86/35
f 88/88/37 96/96/45 89/89/38
